<?xml version="1.0" encoding="utf-8"?>
<!-- Generator: Adobe Illustrator 19.2.0, SVG Export Plug-In . SVG Version: 6.00 Build 0)  -->
<svg version="1.1" id="Layer_1" xmlns="http://www.w3.org/2000/svg" xmlns:xlink="http://www.w3.org/1999/xlink" x="0px" y="0px"
	 viewBox="0 0 200 200" style="enable-background:new 0 0 200 200;" xml:space="preserve">
<style type="text/css">
	.st0{fill:#007DC5;}
</style>
<g>
	<path class="st0" d="M178.2,121.5c-3.9-3.9-6.3-7.1-7.4-13.1H60.1c2.6,7.9,6.8,17.1,6.8,21.3c0,5.6,0.2,17.7,0.2,24.7
		c0,7-6,13.2-10.5,19.4c-4.5,6.2-1.2,7.6,6,7.7c7.2,0.1,9.9-1.9,9.9-1.9l1.2-10.9c0,0,3.4,6.6,5.4,8.2c8-4.3,7.3-15.5,7.3-15.5
		c-10.1-6-5.2-12.7-5.2-20.5c0-7.8,5.1-20.2,9.1-20.2c3.9,0,6.4,2.5,13.6,2.5c7.2,0,13-4.1,16.9-3.1c3.9,1,10.3,8.9,8.4,20
		c-1.9,11.1-19.8,32.5-19.8,32.5l0.6,8.6c9.3,0,14.2-2.6,18.1-8.8c3.9-6.2,7.2-20.4,9.1-25.5c1.9-5.1,10.9-10.5,10.9-14.8
		c0-4.3-1-10.3-1-10.3c4.3,0,5.4,4.1,8.9,11.1c3.5,7-0.8,22-0.8,24.5c0,2.5-0.6,9.9-0.6,9.9l-8.4,10.5c0,0,1.9,5.1,10.3,3.4
		c5-1,12.4-10.6,12.4-12.7s-0.6-10.7-0.6-14.2c0-3.5,3.3-7.6,3.3-13c0-5.3-2.4-12.7-2.5-24.7c1.3,2.1,2.9,3.7,4.5,5
		c4.5,3.5,2.5,5.8,3.1,8.9c1,5.6,4.1,6,5.6,11C187.1,131.6,184.2,127.5,178.2,121.5z"/>
	<path class="st0" d="M174.7,76.2c0-12.4-10.3-23.1-24.5-23.1c-9.5,0-17.7,2.7-37.3,8.9c-19.6,6.2-29.2-0.8-38.5-8.9
		C68.2,47.7,58.1,41.5,49,38.8c-0.6-9.3-3.4-20.2-6.6-20.2c-3,0-4.3,10.7-4.6,19.2c-0.2,0-0.4,0.1-0.6,0.1c-2.2,0.6-4,1.2-5.6,2
		c-2.9-4.9-5.2-11.5-5.5-18.4c-3.5,0.4-8.3,12-0.7,23.3C19,53,23.6,65.5,17.2,75.6c-3.8,5.9-2.1,16.7,8.2,17
		c10.3,0.3,15.6-11.4,19.1-12.3c2.9,8,12.6,12.6,13.6,20.8c0.1,0.8,0.3,1.6,0.5,2.5h111.6c0-0.1,0-0.3,0-0.4
		C172,93.7,174.7,83.9,174.7,76.2z M77.9,99.3l-6.4-3.4l-6.4,3.4l1.2-7.2L61.1,87l7.2-1l3.2-6.5l3.2,6.5l7.2,1l-5.2,5.1L77.9,99.3z
		 M105.6,99.3l-6.4-3.4l-6.4,3.4l1.2-7.2L88.8,87l7.2-1l3.2-6.5l3.2,6.5l7.2,1l-5.2,5.1L105.6,99.3z M133.3,99.3l-6.4-3.4l-6.4,3.4
		l1.2-7.2l-5.2-5.1l7.2-1l3.2-6.5l3.2,6.5l7.2,1l-5.2,5.1L133.3,99.3z M161,99.3l-6.4-3.4l-6.4,3.4l1.2-7.2l-5.2-5.1l7.2-1l3.2-6.5
		l3.2,6.5l7.2,1l-5.2,5.1L161,99.3z"/>
</g>
</svg>
