<?xml version="1.0" encoding="utf-8"?>
<!-- Generator: Adobe Illustrator 19.2.0, SVG Export Plug-In . SVG Version: 6.00 Build 0)  -->
<svg version="1.1" id="Layer_1" xmlns="http://www.w3.org/2000/svg" xmlns:xlink="http://www.w3.org/1999/xlink" x="0px" y="0px"
	 viewBox="0 0 100 100" style="enable-background:new 0 0 100 100;" xml:space="preserve">
<style type="text/css">
	.st0{fill:#3D3D3D;}
	.st1{fill:#D33F27;}
</style>
<g>
	<path class="st0" d="M10.7,56.8h12.9V5H10.7C7.5,5,5,8,5,11.7v38.5C5,53.9,7.5,56.8,10.7,56.8z"/>
	<g>
		<path class="st1" d="M88.7,36.2c1-1.4,1.6-3.1,1.6-4.9l0,0c0-4.2-3.1-7.6-7.2-8.1c0.9-1.3,1.5-2.9,1.5-4.7c0-4.5-3.7-8.2-8.2-8.2
			h-6.7H37h-7.6v4v3.4l0,0v9.1l0,0v25.6c0,1.2,0.2,2.4,0.5,3.5c0.2,0.6,0.4,1.1,0.6,1.7c0.2,0.5,0.5,1.1,0.9,1.6l11.8,18.2v11v0.3
			c0,2.3,1.2,4.3,3,5.4c1.1,0.7,2.4,1.2,3.9,1.2c1.5,0,2.8-0.5,3.9-1.2l0,0c0,0,0,0,0,0c0.4-0.3,0.7-0.6,1-0.9
			c5.6-5.3,7.4-13.5,5.5-21.1l-1.7-6.6h26c4.5,0,8.2-3.7,8.2-8.2c0-2.2-0.9-4.3-2.3-5.7c2.4-1.4,4.1-4.1,4.1-7.1
			C94.9,40.3,92.3,37.1,88.7,36.2z"/>
	</g>
</g>
<g>
	<path class="st0" d="M-65.1,36.8c0,0.6,0.3,1.2,0.8,1.5c-0.3,0.3-0.5,0.7-0.5,1.2c0,0.9,0.8,1.7,1.7,1.7h5.4l-0.3,1.4
		c-0.4,1.6,0,3.3,1.1,4.3c0.1,0.1,0.1,0.1,0.2,0.2c0,0,0,0,0,0l0,0c0.2,0.2,0.5,0.3,0.8,0.3c0.3,0,0.6-0.1,0.8-0.2
		c0.4-0.2,0.6-0.6,0.6-1.1v-0.1v-2.3l2.4-3.7c0.1-0.1,0.1-0.2,0.2-0.3c0.1-0.1,0.1-0.2,0.1-0.3c0.1-0.2,0.1-0.5,0.1-0.7v-5.3l0,0
		v-1.9l0,0v-0.7v-0.8h-1.6h-6.8h-1.4c-0.9,0-1.7,0.8-1.7,1.7c0,0.4,0.1,0.7,0.3,1c-0.8,0.1-1.5,0.8-1.5,1.7l0,0c0,0.4,0.1,0.7,0.3,1
		C-64.6,35.3-65.1,36-65.1,36.8z"/>
</g>
</svg>
