<?xml version="1.0" encoding="utf-8"?>
<!-- Generator: Adobe Illustrator 19.2.0, SVG Export Plug-In . SVG Version: 6.00 Build 0)  -->
<svg version="1.1" id="Layer_1" xmlns="http://www.w3.org/2000/svg" xmlns:xlink="http://www.w3.org/1999/xlink" x="0px" y="0px"
	 viewBox="0 0 100 100" style="enable-background:new 0 0 100 100;" xml:space="preserve">
<style type="text/css">
	.st0{fill:#3D3D3D;}
	.st1{enable-background:new    ;}
	.st2{fill:#FFC900;}
</style>
<g>
	<path class="st0" d="M-65.1,36.8c0,0.6,0.3,1.2,0.8,1.5c-0.3,0.3-0.5,0.7-0.5,1.2c0,0.9,0.8,1.7,1.7,1.7h5.4l-0.3,1.4
		c-0.4,1.6,0,3.3,1.1,4.3c0.1,0.1,0.1,0.1,0.2,0.2l0,0l0,0c0.2,0.2,0.5,0.3,0.8,0.3s0.6-0.1,0.8-0.2c0.4-0.2,0.6-0.6,0.6-1.1V46
		v-2.3l2.4-3.7c0.1-0.1,0.1-0.2,0.2-0.3c0.1-0.1,0.1-0.2,0.1-0.3c0.1-0.2,0.1-0.5,0.1-0.7v-5.3l0,0v-1.9l0,0v-0.7V30h-1.6h-6.8h-1.4
		c-0.9,0-1.7,0.8-1.7,1.7c0,0.4,0.1,0.7,0.3,1c-0.8,0.1-1.5,0.8-1.5,1.7l0,0c0,0.4,0.1,0.7,0.3,1C-64.6,35.3-65.1,36-65.1,36.8z"/>
</g>
<text transform="matrix(1 0 0 1 102.3333 -5.7422)" style="font-family:'Roboto-Regular'; font-size:83.6105px;">X</text>
<polygon class="st2" points="83.8,29.9 75.5,21.5 51,46 26.5,21.5 18.2,29.9 42.7,54.3 18.2,78.8 26.5,87.1 51,62.7 75.5,87.1 
	83.8,78.8 59.3,54.3 "/>
<rect x="-52" y="-34.3" class="st2" width="29.3" height="16"/>
</svg>
