<?xml version="1.0" encoding="utf-8"?>
<!-- Generator: Adobe Illustrator 19.2.0, SVG Export Plug-In . SVG Version: 6.00 Build 0)  -->
<svg version="1.1" id="Layer_1" xmlns="http://www.w3.org/2000/svg" xmlns:xlink="http://www.w3.org/1999/xlink" x="0px" y="0px"
	 viewBox="0 0 200 200" style="enable-background:new 0 0 200 200;" xml:space="preserve">
<style type="text/css">
	.st0{fill:#ED1C24;}
</style>
<g>
	<path class="st0" d="M175.8,151.4v7.5c0,1.1-0.9,2-2,2c-1.1,0-2-0.9-2-2l0-49.4V90.2H6.5v88.5h38.2v-41.9h60.7v41.9h38.2v-49.6
		c0-2.9,2.3-5.2,5.2-5.2c2.9,0,5.2,2.3,5.2,5.2v29.8c0,10.9,8.9,19.8,19.8,19.8c10.9,0,19.8-8.9,19.8-19.8v-7.5H175.8z"/>
	<path class="st0" d="M89.1,21.3c-45.6,0-82.6,14-82.6,44.8v19.3h165.3V66.1C171.7,35.2,134.7,21.3,89.1,21.3z M47.8,63.3l-5.1,10.4
		l-5.1-10.4l-11.4-1.7l8.3-8.1l-2-11.4l10.2,5.4l10.2-5.4l-2,11.4l8.3,8.1L47.8,63.3z M94.2,63.3l-5.1,10.4L84,63.3l-11.4-1.7
		l8.3-8.1l-2-11.4l10.2,5.4l10.2-5.4l-2,11.4l8.3,8.1L94.2,63.3z M140.6,63.3l-5.1,10.4l-5.1-10.4l-11.4-1.7l8.3-8.1l-2-11.4
		l10.2,5.4l10.2-5.4l-2,11.4l8.3,8.1L140.6,63.3z"/>
</g>
</svg>
