<?xml version="1.0" encoding="utf-8"?>
<!-- Generator: Adobe Illustrator 19.2.0, SVG Export Plug-In . SVG Version: 6.00 Build 0)  -->
<svg version="1.1" id="Layer_1" xmlns="http://www.w3.org/2000/svg" xmlns:xlink="http://www.w3.org/1999/xlink" x="0px" y="0px"
	 viewBox="0 0 100 100" style="enable-background:new 0 0 100 100;" xml:space="preserve">
<style type="text/css">
	.st0{fill:#3D3D3D;}
	.st1{fill:#6DBE45;}
</style>
<g>
	<path class="st0" d="M5,49.8v38.5C5,92,7.5,95,10.7,95h12.9V43.2H10.7C7.5,43.2,5,46.1,5,49.8z"/>
	<g>
		<path class="st1" d="M94.9,55.9c0-3-1.6-5.7-4.1-7.1c1.5-1.5,2.3-3.5,2.3-5.7c0-4.5-3.7-8.2-8.2-8.2h-26l1.7-6.6
			c1.9-7.6,0.1-15.8-5.5-21.1c-0.3-0.3-0.7-0.7-1-0.9l0,0l0,0c-1.2-0.8-2.6-1.3-4-1.3s-2.8,0.4-3.9,1.2c-1.8,1.1-3,3.1-3,5.4v0.3v11
			L31.4,41c-0.3,0.5-0.6,1-0.9,1.6c-0.2,0.5-0.5,1.1-0.6,1.7c-0.3,1.1-0.5,2.3-0.5,3.5v25.6l0,0v9.1l0,0v3.4v4H37h32.8h6.7
			c4.5,0,8.2-3.7,8.2-8.2c0-1.8-0.6-3.4-1.5-4.7c4-0.5,7.2-3.9,7.2-8.1l0,0c0-1.8-0.6-3.5-1.6-4.9C92.3,62.9,94.9,59.7,94.9,55.9z"
			/>
	</g>
</g>
<g>
	<path class="st0" d="M178.9,15.8c0,0.6,0.3,1.2,0.8,1.5c-0.3,0.3-0.5,0.7-0.5,1.2c0,0.9,0.8,1.7,1.7,1.7h5.4l-0.3,1.4
		c-0.4,1.6,0,3.3,1.1,4.3c0.1,0.1,0.1,0.1,0.2,0.2c0,0,0,0,0,0l0,0c0.2,0.2,0.5,0.3,0.8,0.3c0.3,0,0.6-0.1,0.8-0.2
		c0.4-0.2,0.6-0.6,0.6-1.1v-0.1v-2.3l2.4-3.7c0.1-0.1,0.1-0.2,0.2-0.3c0.1-0.1,0.1-0.2,0.1-0.3c0.1-0.2,0.1-0.5,0.1-0.7v-5.3l0,0
		v-1.9l0,0V9.6V8.8h-1.6h-6.8h-1.4c-0.9,0-1.7,0.8-1.7,1.7c0,0.4,0.1,0.7,0.3,1c-0.8,0.1-1.5,0.8-1.5,1.7l0,0c0,0.4,0.1,0.7,0.3,1
		C179.4,14.3,178.9,15,178.9,15.8z"/>
</g>
</svg>
